HIERARCHY
ROOT Hips
{
  OFFSET 32.6806 98.6118 -13.9239
  CHANNELS 6 Xposition Yposition Zposition Zrotation Xrotation Yrotation
  JOINT spine
  {
    OFFSET 0 8.30104 0.477351
    CHANNELS 3 Zrotation Xrotation Yrotation
    JOINT spine1
    {
      OFFSET 0 10.4565 0
      CHANNELS 3 Zrotation Xrotation Yrotation
      JOINT spine2
      {
        OFFSET 0 10.0192 0
        CHANNELS 3 Zrotation Xrotation Yrotation
        JOINT Neck
        {
          OFFSET 0 25.7235 1.22641
          CHANNELS 3 Zrotation Xrotation Yrotation
          JOINT Head
          {
            OFFSET 0 7.77175 0
            CHANNELS 3 Zrotation Xrotation Yrotation
            End Site
            {
              OFFSET 0 18.812 -6.20394
            }
          }
        }
        JOINT RightShoulder
        {
          OFFSET -4.2188 10.82 -0.587439
          CHANNELS 3 Zrotation Xrotation Yrotation
          JOINT RightArm
          {
            OFFSET 0 14.1914 0
            CHANNELS 3 Zrotation Xrotation Yrotation
            JOINT RightArmRoll
            {
              OFFSET 0 7.16408 0
              CHANNELS 3 Zrotation Xrotation Yrotation
              JOINT RightForeArm
              {
                OFFSET 0 20.8665 0
                CHANNELS 3 Zrotation Xrotation Yrotation
                JOINT RightForeArmRoll
                {
                  OFFSET 0 8.03921 0
                  CHANNELS 3 Zrotation Xrotation Yrotation
                  JOINT RightHand
                  {
                    OFFSET 0 16.133 0
                    CHANNELS 3 Zrotation Xrotation Yrotation
                    End Site
                    {
                      OFFSET 0 0 0
                    }
                  }
                }
              }
            }
          }
        }
        JOINT LeftShoulder
        {
          OFFSET 4.2188 10.82 -0.587439
          CHANNELS 3 Zrotation Xrotation Yrotation
          JOINT LeftArm
          {
            OFFSET 0 14.1914 0
            CHANNELS 3 Zrotation Xrotation Yrotation
            JOINT LeftArmRoll
            {
              OFFSET 0 7.16409 0
              CHANNELS 3 Zrotation Xrotation Yrotation
              JOINT LeftForeArm
              {
                OFFSET 0 20.8665 0
                CHANNELS 3 Zrotation Xrotation Yrotation
                JOINT LeftForeArmRoll
                {
                  OFFSET 0 8.03921 0
                  CHANNELS 3 Zrotation Xrotation Yrotation
                  JOINT LeftHand
                  {
                    OFFSET 0 16.133 0
                    CHANNELS 3 Zrotation Xrotation Yrotation
                    End Site
                    {
                      OFFSET 0 0 0
                    }
                  }
                }
              }
            }
          }
        }
      }
    }
  }
  JOINT RightUpLeg
  {
    OFFSET -7.35773 -1.34921 -1.13182
    CHANNELS 3 Zrotation Xrotation Yrotation
    JOINT RightUpLegRoll
    {
      OFFSET 0 18.9168 0
      CHANNELS 3 Zrotation Xrotation Yrotation
      JOINT RightLeg
      {
        OFFSET 0 -23.4256 0
        CHANNELS 3 Zrotation Xrotation Yrotation
        JOINT RightLegRoll
        {
          OFFSET 0 23.5023 0
          CHANNELS 3 Zrotation Xrotation Yrotation
          JOINT RightFoot
          {
            OFFSET 0 19.5617 0
            CHANNELS 3 Zrotation Xrotation Yrotation
            JOINT RightToeBase
            {
              OFFSET 0 16.3526 0
              CHANNELS 3 Zrotation Xrotation Yrotation
              End Site
              {
                OFFSET 0.00693125 7.91943 -0.912837
              }
            }
          }
        }
      }
    }
  }
  JOINT LeftUpLeg
  {
    OFFSET 7.35773 -1.34921 -1.13182
    CHANNELS 3 Zrotation Xrotation Yrotation
    JOINT LeftUpLegRoll
    {
      OFFSET 0 18.9169 0
      CHANNELS 3 Zrotation Xrotation Yrotation
      JOINT LeftLeg
      {
        OFFSET 0 23.4255 0
        CHANNELS 3 Zrotation Xrotation Yrotation
        JOINT LeftLegRoll
        {
          OFFSET 0 23.7195 0
          CHANNELS 3 Zrotation Xrotation Yrotation
          JOINT LeftFoot
          {
            OFFSET 0 19.3444 0
            CHANNELS 3 Zrotation Xrotation Yrotation
            JOINT LeftToeBase
            {
              OFFSET 0 16.3526 0
              CHANNELS 3 Zrotation Xrotation Yrotation
              End Site
              {
                OFFSET -0.0310629 7.91943 -0.912837
              }
            }
          }
        }
      }
    }
  }
}
MOTION
Frames: 11
Frame Time: 0.00208333
31.3641 104.799 -14.7073 0.766164 -5.57663 0.88645 0.138917 -1.30706 0.475356 0.283948 1.3899 0.935609 0.272938 3.03487 0.931379 7.06619 21.9063 -2.76778 -7.35301 -11.3382 -1.8182 45.3854 -9.47167 -5.73914 36.5521 40.6098 58.8631 2.21868e-006 4.2705e-006 9.02883e-007 -12.8285 64.7888 14.1089 -1.94833e-006 1.65395e-006 -3 8.02888 -4.95144 0.697693 -46.2301 -5.5615 2.66129 -42.7928 32.2502 -50.2243 -6.7657e-006 -1.00713e-006 -1.19945e-006 2.99209 58.0255 -1.88785 4.33004e-006 1.34617e-007 3.00843 -8.0289 -4.95147 -0.697674 163.055 -0.744515 7.7316 180 7.01413e-015 178.445 178.53 14.864 179.292 -2.20793e-006 -2.58006e-006 0.102468 -16.9489 65.6096 17.7481 8.13648 25.2326 -3.48774 -164.901 3.67844 -5.25116 4.54188e-006 -4.6773e-006 -1.51254 -0.401775 -18.8964 0.853591 -1.60144e-006 -6.63362e-007 -0.137478 17.0299 65.4716 -17.6462 -8.13649 25.2327 3.48775 
31.3332 105.02 -14.5672 0.752525 -5.57045 0.900244 0.138986 -1.30588 0.473318 0.284052 1.39225 0.931522 0.273091 3.03722 0.927288 7.23579 21.8817 -2.80268 -7.46985 -11.3755 -1.82239 45.7345 -9.41023 -5.69498 37.1809 40.2641 58.3349 2.21868e-006 4.2705e-006 9.02883e-007 -12.4296 64.3893 13.6532 -1.94833e-006 1.65395e-006 -3 8.02888 -4.95144 0.697693 -46.3624 -5.47323 2.60143 -43.4613 31.8771 -49.67 -6.7657e-006 -1.00713e-006 -1.19945e-006 2.84472 57.7529 -1.73874 4.33004e-006 1.34617e-007 3.00841 -8.0289 -4.95147 -0.697674 163.247 -0.751769 7.66931 180 7.01416e-015 178.455 178.447 14.819 179.309 -2.20793e-006 -2.58006e-006 0.105854 -16.971 65.649 17.775 8.13648 25.2326 -3.48774 -165.077 3.63627 -5.15577 4.54188e-006 -4.6773e-006 -1.50651 -0.443347 -18.7984 0.843492 -1.60144e-006 -6.63362e-007 -0.139329 17.035 65.4906 -17.6593 -8.13649 25.2327 3.48775 
31.3424 105.196 -14.6521 0.737188 -5.56526 0.916328 0.139344 -1.30485 0.471189 0.284732 1.3943 0.927223 0.273823 3.03927 0.922976 7.40565 21.8589 -2.83992 -7.58762 -11.4115 -1.82905 46.0843 -9.34786 -5.65073 37.793 39.9211 57.8261 2.21868e-006 4.2705e-006 9.02883e-007 -12.0429 63.9742 13.2125 -1.94833e-006 1.65395e-006 -3 8.02888 -4.95144 0.697693 -46.4923 -5.3821 2.5395 -44.1245 31.5047 -49.1179 -6.7657e-006 -1.00713e-006 -1.19945e-006 2.69808 57.4593 -1.59077 4.33004e-006 1.34617e-007 3.00839 -8.0289 -4.95147 -0.697674 163.444 -0.755402 7.60569 180 7.01419e-015 178.465 178.366 14.7936 179.325 -2.20793e-006 -2.58006e-006 0.10978 -16.9974 65.6941 17.8059 8.13648 25.2326 -3.48774 -165.253 3.59743 -5.06116 4.54188e-006 -4.6773e-006 -1.50083 -0.482958 -18.7134 0.834172 -1.60144e-006 -6.63362e-007 -0.141538 17.0413 65.5097 -17.6724 -8.13649 25.2327 3.48774 
31.3639 105.398 -14.6086 0.720465 -5.56086 0.933894 0.140021 -1.30398 0.469046 0.286052 1.39604 0.922864 0.275196 3.04101 0.918592 7.57281 21.8369 -2.87849 -7.70411 -11.4451 -1.83766 46.4325 -9.28504 -5.60666 38.3902 39.5821 57.3371 2.21868e-006 4.2705e-006 9.02883e-007 -11.67 63.5431 12.7877 -1.94833e-006 1.65395e-006 -3 8.02888 -4.95144 0.697693 -46.6213 -5.28913 2.47636 -44.7803 31.1336 -48.5707 -6.7657e-006 -1.00713e-006 -1.19945e-006 2.5532 57.1464 -1.44488 4.33004e-006 1.34617e-007 3.00837 -8.0289 -4.95147 -0.697674 163.643 -0.755736 7.54075 180 7.01423e-015 178.476 178.285 14.7844 179.34 -2.20793e-006 -2.58006e-006 0.114147 -17.0278 65.7442 17.8402 8.13648 25.2326 -3.48774 -165.428 3.56151 -4.96737 4.54188e-006 -4.6773e-006 -1.49547 -0.52113 -18.6397 0.825493 -1.60144e-006 -6.63362e-007 -0.144041 17.0485 65.5286 -17.6854 -8.13649 25.2327 3.48774 
31.3572 105.584 -14.6389 0.702671 -5.55704 0.952134 0.141049 -1.30327 0.466967 0.288076 1.39746 0.918593 0.277273 3.04244 0.914285 7.73427 21.8148 -2.91733 -7.81711 -11.4751 -1.8477 46.7771 -9.22226 -5.56303 38.9745 39.2486 56.8685 2.21868e-006 4.2705e-006 9.02883e-007 -11.3126 63.0959 12.38 -1.94833e-006 1.65395e-006 -3 8.02888 -4.95144 0.697693 -46.7505 -5.19534 2.41289 -45.4267 30.7645 -48.031 -6.7657e-006 -1.00713e-006 -1.19945e-006 2.41101 56.8157 -1.30194 4.33004e-006 1.34617e-007 3.00836 -8.0289 -4.95147 -0.697674 163.845 -0.753098 7.47448 180 7.01426e-015 178.487 178.206 14.7886 179.354 -2.20793e-006 -2.58006e-006 0.118852 -17.0615 65.7985 17.8775 8.13648 25.2326 -3.48774 -165.604 3.52807 -4.87444 4.54188e-006 -4.6773e-006 -1.4904 -0.558383 -18.5753 0.817318 -1.60144e-006 -6.63362e-007 -0.146776 17.0566 65.5474 -17.6982 -8.13649 25.2327 3.48774 
31.3905 105.748 -14.6346 0.684122 -5.55358 0.97024 0.14246 -1.30272 0.465028 0.290868 1.39856 0.914563 0.280115 3.04354 0.910206 7.88703 21.7917 -2.95543 -7.92439 -11.5002 -1.85865 47.116 -9.15999 -5.52012 39.5478 38.922 56.4206 2.21868e-006 4.2705e-006 9.02883e-007 -10.9723 62.632 11.9902 -1.94833e-006 1.65395e-006 -3 8.02888 -4.95144 0.697693 -46.8814 -5.10173 2.34995 -46.0619 30.398 -47.5014 -6.7657e-006 -1.00713e-006 -1.19945e-006 2.27238 56.469 -1.16276 4.33004e-006 1.34617e-007 3.00834 -8.0289 -4.95147 -0.697674 164.048 -0.747813 7.40686 180 7.0143e-015 178.498 178.127 14.8028 179.367 -2.20793e-006 -2.58006e-006 0.123796 -17.0982 65.8565 17.9175 8.13648 25.2326 -3.48774 -165.779 3.49667 -4.78241 4.54188e-006 -4.6773e-006 -1.48558 -0.595234 -18.5185 0.809511 -1.60144e-006 -6.63362e-007 -0.149679 17.0652 65.566 -17.7109 -8.13649 25.2327 3.48774 
31.3773 105.927 -14.6477 0.665131 -5.55028 0.987402 0.144284 -1.30234 0.463306 0.294491 1.39934 0.910923 0.283785 3.04432 0.906503 8.02812 21.7668 -2.99173 -8.02374 -11.5194 -1.87001 47.4472 -9.09871 -5.4782 40.1123 38.6037 55.9938 2.21868e-006 4.2705e-006 9.02883e-007 -10.6506 62.1513 11.6191 -1.94833e-006 1.65395e-006 -3 8.02888 -4.95144 0.697693 -47.0153 -5.00933 2.28841 -46.6841 30.0351 -46.9846 -6.7657e-006 -1.00713e-006 -1.19945e-006 2.13811 56.1078 -1.02809 4.33004e-006 1.34617e-007 3.00832 -8.0289 -4.95147 -0.697674 164.254 -0.740206 7.33791 180 7.01434e-015 178.51 178.05 14.8242 179.38 -2.20793e-006 -2.58006e-006 0.128877 -17.1373 65.9173 17.9597 8.13648 25.2326 -3.48774 -165.955 3.46689 -4.69132 4.54188e-006 -4.6773e-006 -1.48099 -0.632199 -18.4675 0.801937 -1.60144e-006 -6.63362e-007 -0.152688 17.0743 65.5843 -17.7233 -8.13649 25.2327 3.48774 
31.4012 106.124 -14.5948 0.646014 -5.54693 1.00281 0.146554 -1.30212 0.461878 0.29901 1.39979 0.907825 0.288344 3.04476 0.903327 8.15453 21.7392 -3.02522 -8.11293 -11.5315 -1.88125 47.7685 -9.03891 -5.43753 40.67 38.2952 55.5883 2.21868e-006 4.2705e-006 9.02883e-007 -10.3487 61.6533 11.2674 -1.94833e-006 1.65395e-006 -3 8.02888 -4.95144 0.697693 -47.1534 -4.91914 2.22915 -47.2918 29.6767 -46.483 -6.7657e-006 -1.00713e-006 -1.19945e-006 2.00891 55.7337 -0.898607 4.33004e-006 1.34617e-007 3.0083 -8.0289 -4.95147 -0.697674 164.461 -0.730603 7.2676 180 7.01437e-015 178.521 177.973 14.8494 179.393 -2.20793e-006 -2.58006e-006 0.133994 -17.1783 65.9803 18.0035 8.13648 25.2326 -3.48774 -166.13 3.43828 -4.60123 4.54188e-006 -4.6773e-006 -1.47659 -0.66979 -18.4202 0.794462 -1.60144e-006 -6.63362e-007 -0.155737 17.0836 65.6023 -17.7355 -8.13649 25.2327 3.48774 
31.3974 106.268 -14.6131 0.627084 -5.5433 1.01566 0.1493 -1.30207 0.460821 0.304488 1.3999 0.905418 0.293855 3.04487 0.900827 8.26328 21.7079 -3.05486 -8.18973 -11.5352 -1.89185 48.0779 -8.98106 -5.3984 41.2231 37.998 55.2046 2.21868e-006 4.2705e-006 9.02883e-007 -10.0679 61.1378 10.9357 -1.94833e-006 1.65395e-006 -3 8.02888 -4.95144 0.697693 -47.2971 -4.83217 2.17302 -47.8835 29.3242 -45.999 -6.7657e-006 -1.00713e-006 -1.19945e-006 1.88544 55.3485 -0.774941 4.33004e-006 1.34617e-007 3.00829 -8.0289 -4.95147 -0.697674 164.668 -0.71933 7.19593 180 7.01441e-015 178.533 177.898 14.8754 179.405 -2.20793e-006 -2.58006e-006 0.139048 -17.2208 66.0447 18.0486 8.13648 25.2326 -3.48774 -166.307 3.41041 -4.51218 4.54188e-006 -4.6773e-006 -1.47236 -0.70852 -18.375 0.786951 -1.60144e-006 -6.63362e-007 -0.158766 17.0929 65.6198 -17.7474 -8.13649 25.2327 3.48774 
31.4126 106.448 -14.6375 0.608655 -5.53921 1.02514 0.152555 -1.3022 0.460212 0.310988 1.39966 0.903854 0.300379 3.04464 0.899152 8.35138 21.6722 -3.0796 -8.25193 -11.5295 -1.90129 48.3733 -8.92565 -5.36105 41.7737 37.7135 54.8428 2.21868e-006 4.2705e-006 9.02883e-007 -9.80943 60.6044 10.6247 -1.94833e-006 1.65395e-006 -3 8.02888 -4.95144 0.697693 -47.4477 -4.74946 2.12089 -48.4577 28.9786 -45.535 -6.7657e-006 -1.00713e-006 -1.19945e-006 1.76829 54.9537 -0.657657 4.33004e-006 1.34617e-007 3.00827 -8.0289 -4.95147 -0.697674 164.876 -0.706713 7.1229 180 7.01445e-015 178.544 177.825 14.8992 179.416 -2.20793e-006 -2.58006e-006 0.143936 -17.2641 66.11 18.0945 8.13648 25.2326 -3.48774 -166.483 3.38285 -4.4242 4.54188e-006 -4.6773e-006 -1.46825 -0.748899 -18.33 0.779272 -1.60144e-006 -6.63362e-007 -0.16171 17.1021 65.6369 -17.7589 -8.13649 25.2327 3.48774 
31.4129 106.61 -14.6311 0.591043 -5.53442 1.03044 0.156349 -1.30251 0.460128 0.318575 1.39909 0.903282 0.307978 3.04406 0.898453 8.41584 21.631 -3.09843 -8.29729 -11.513 -1.90906 48.6525 -8.87316 -5.32577 42.3239 37.4431 54.5032 2.21868e-006 4.2705e-006 9.02883e-007 -9.57425 60.053 10.3346 -1.94833e-006 1.65395e-006 -3 8.02888 -4.95144 0.697693 -47.6067 -4.672 2.07362 -49.0133 28.6413 -45.0935 -6.7657e-006 -1.00713e-006 -1.19945e-006 1.65797 54.551 -0.54727 4.33004e-006 1.34617e-007 3.00825 -8.0289 -4.95147 -0.697674 165.084 -0.693079 7.04851 180 7.01448e-015 178.556 177.752 14.9175 179.428 -2.20793e-006 -2.58006e-006 0.148559 -17.3079 66.1753 18.1406 8.13648 25.2326 -3.48774 -166.661 3.35516 -4.33735 4.54188e-006 -4.6773e-006 -1.46425 -0.791436 -18.2833 0.771292 -1.60144e-006 -6.63362e-007 -0.164506 17.1109 65.6534 -17.7701 -8.13649 25.2327 3.48774 
